<?xml version="1.0" standalone="no"?>
<!DOCTYPE svg PUBLIC "-//W3C//DTD SVG 20010904//EN"
 "http://www.w3.org/TR/2001/REC-SVG-20010904/DTD/svg10.dtd">
<svg version="1.0" xmlns="http://www.w3.org/2000/svg"
 width="720.000000pt" height="212.000000pt" viewBox="0 0 720.000000 212.000000"
 preserveAspectRatio="xMidYMid meet">
<metadata>
Created by potrace 1.15, written by Peter Selinger 2001-2017
</metadata>
<g transform="translate(0.000000,212.000000) scale(0.100000,-0.100000)"
fill="#FFFFFF" stroke="none">
<path d="M844 2035 c-122 -28 -328 -113 -359 -149 -5 -7 -43 -39 -84 -71 -137
-110 -253 -289 -306 -473 -23 -79 -25 -103 -25 -282 0 -179 2 -203 25 -282 54
-186 173 -369 313 -480 43 -33 79 -64 82 -68 8 -12 141 -78 211 -104 127 -47
206 -58 377 -53 120 3 176 9 237 26 82 23 279 111 299 134 6 7 44 40 84 72 41
32 86 75 100 94 15 20 44 57 65 83 52 65 111 187 144 305 26 91 28 111 28 273
0 154 -3 185 -24 260 -31 111 -86 234 -129 290 -19 25 -50 66 -69 92 -54 74
-220 203 -325 253 -151 71 -226 87 -418 91 -115 2 -184 -1 -226 -11z m396 -83
c23 -10 21 -11 -20 -12 -130 -2 -277 -68 -379 -170 -72 -72 -117 -147 -152
-255 -22 -67 -23 -87 -27 -444 -4 -411 -1 -440 56 -477 37 -25 104 -24 139 2
50 36 63 77 63 194 l0 105 118 34 c64 18 123 36 131 39 11 4 13 -19 9 -134 -4
-128 -6 -144 -33 -199 -37 -76 -113 -153 -190 -191 -55 -26 -69 -29 -165 -29
-93 0 -111 3 -163 27 -73 35 -155 116 -193 193 l-29 60 -3 350 c-3 293 0 361
13 422 52 233 244 428 483 488 65 17 301 14 342 -3z m189 -261 c108 -33 186
-105 239 -219 l27 -57 0 -370 c0 -360 -1 -372 -23 -440 -73 -220 -256 -389
-477 -441 -77 -18 -288 -15 -335 4 -23 10 -21 11 20 12 198 3 408 145 496 335
53 115 57 146 61 519 3 191 2 368 -2 392 -8 55 -45 100 -94 115 -32 10 -45 8
-83 -9 -64 -28 -78 -63 -78 -199 l0 -108 -117 -34 c-65 -18 -124 -36 -131 -39
-12 -4 -13 19 -10 134 3 126 6 144 30 197 47 99 159 193 262 218 58 13 153 9
215 -10z"/>
<path d="M2710 1470 l0 -90 145 0 145 0 0 -415 0 -415 110 0 110 0 0 415 0
415 145 0 145 0 0 90 0 90 -400 0 -400 0 0 -90z"/>
<path d="M3770 1055 l0 -505 105 0 105 0 0 505 0 505 -105 0 -105 0 0 -505z"/>
<path d="M4300 1055 l0 -505 100 0 100 0 1 373 0 372 92 -370 93 -370 103 0
104 0 93 360 92 360 1 -362 1 -363 100 0 100 0 0 505 0 505 -158 0 -158 0 -84
-325 c-47 -178 -87 -321 -91 -317 -3 4 -41 142 -83 307 -42 165 -79 308 -82
318 -5 15 -22 17 -165 17 l-159 0 0 -505z"/>
<path d="M5610 1056 l0 -506 110 0 110 0 0 189 0 188 168 5 c146 4 174 8 220
28 69 30 137 105 157 173 19 65 19 169 0 234 -19 63 -80 134 -143 165 -45 22
-57 23 -334 26 l-288 3 0 -505z m487 307 c107 -51 90 -211 -26 -243 -20 -5
-82 -10 -138 -10 l-103 0 0 135 0 135 116 0 c88 0 125 -4 151 -17z"/>
</g>
</svg>
