<?xml version="1.0" standalone="no"?>
<!DOCTYPE svg PUBLIC "-//W3C//DTD SVG 20010904//EN"
 "http://www.w3.org/TR/2001/REC-SVG-20010904/DTD/svg10.dtd">
<svg version="1.0" xmlns="http://www.w3.org/2000/svg"
 width="632.000000pt" height="635.000000pt" viewBox="0 0 632.000000 635.000000"
 preserveAspectRatio="xMidYMid meet">
<metadata>
Created by potrace 1.15, written by Peter Selinger 2001-2017
</metadata>
<g transform="translate(0.000000,635.000000) scale(0.100000,-0.100000)"
fill="#FFFFFF" stroke="none">
<path d="M2836 6339 c-730 -75 -1391 -382 -1905 -883 -436 -427 -732 -938
-871 -1509 -59 -240 -60 -252 -60 -772 0 -535 1 -543 71 -814 230 -892 861
-1654 1701 -2055 296 -142 589 -230 943 -283 95 -14 183 -18 425 -18 355 0
492 16 785 90 233 59 396 119 620 230 520 256 958 644 1267 1125 720 1119 667
2573 -131 3634 -511 678 -1233 1106 -2086 1236 -159 25 -601 36 -759 19z m724
-274 c134 -21 330 -64 350 -77 11 -7 10 -8 -5 -3 -11 4 -83 10 -160 12 -439
16 -896 -170 -1252 -511 -260 -248 -436 -553 -529 -912 -68 -269 -67 -240 -71
-1459 -4 -958 -2 -1110 11 -1174 28 -132 103 -229 224 -289 73 -36 80 -37 182
-37 99 0 109 2 173 33 88 44 155 110 198 197 l34 70 3 362 c3 331 4 362 20
367 9 3 193 55 407 116 215 61 396 113 403 115 21 8 11 -694 -12 -788 -61
-261 -178 -469 -360 -645 -545 -526 -1422 -454 -1872 154 -114 153 -197 345
-229 528 -22 126 -22 1993 0 2157 123 927 841 1653 1775 1794 131 19 563 14
710 -10z m665 -830 c493 -103 867 -477 977 -976 l23 -104 0 -995 c0 -1088 0
-1087 -61 -1325 -200 -786 -823 -1380 -1615 -1539 -311 -63 -704 -50 -1074 36
-49 11 -97 25 -105 30 -11 7 -10 8 5 2 11 -4 90 -9 175 -12 185 -5 332 16 512
74 626 201 1106 720 1261 1364 63 257 61 211 65 1440 3 837 0 1139 -8 1180
-27 127 -115 235 -238 293 -61 29 -75 32 -168 32 -95 0 -104 -2 -175 -37 -93
-46 -158 -112 -202 -206 l-32 -67 -5 -359 -5 -359 -395 -113 c-217 -62 -406
-116 -419 -119 l-23 -6 5 348 c4 309 7 359 26 447 114 516 512 894 1036 982
103 17 334 12 440 -11z"/>
</g>
</svg>
