<?xml version="1.0" standalone="no"?>
<!DOCTYPE svg PUBLIC "-//W3C//DTD SVG 20010904//EN"
 "http://www.w3.org/TR/2001/REC-SVG-20010904/DTD/svg10.dtd">
<svg version="1.0" xmlns="http://www.w3.org/2000/svg"
 width="720.000000pt" height="212.000000pt" viewBox="0 0 720.000000 212.000000"
 preserveAspectRatio="xMidYMid meet">
<metadata>
Created by potrace 1.15, written by Peter Selinger 2001-2017
</metadata>
<g transform="translate(0.000000,212.000000) scale(0.100000,-0.100000)"
fill="#FFFFFF" stroke="none">
<path d="M844 2035 c-122 -28 -328 -113 -359 -149 -5 -7 -43 -39 -84 -71 -137
-110 -253 -289 -306 -473 -23 -79 -25 -103 -25 -282 0 -179 2 -203 25 -282 54
-186 173 -369 313 -480 43 -33 79 -64 82 -68 8 -12 141 -78 211 -104 127 -47
206 -58 377 -53 120 3 176 9 237 26 82 23 279 111 299 134 6 7 44 40 84 72 41
32 86 75 100 94 15 20 44 57 65 83 52 65 111 187 144 305 26 91 28 111 28 273
0 154 -3 185 -24 260 -31 111 -86 234 -129 290 -19 25 -50 66 -69 92 -54 74
-220 203 -325 253 -151 71 -226 87 -418 91 -115 2 -184 -1 -226 -11z m396 -83
c23 -10 21 -11 -20 -12 -130 -2 -277 -68 -379 -170 -72 -72 -117 -147 -152
-255 -22 -67 -23 -87 -27 -444 -4 -411 -1 -440 56 -477 37 -25 104 -24 139 2
50 36 63 77 63 194 l0 105 118 34 c64 18 123 36 131 39 11 4 13 -19 9 -134 -4
-128 -6 -144 -33 -199 -37 -76 -113 -153 -190 -191 -55 -26 -69 -29 -165 -29
-93 0 -111 3 -163 27 -73 35 -155 116 -193 193 l-29 60 -3 350 c-3 293 0 361
13 422 52 233 244 428 483 488 65 17 301 14 342 -3z m189 -261 c108 -33 186
-105 239 -219 l27 -57 0 -370 c0 -360 -1 -372 -23 -440 -73 -220 -256 -389
-477 -441 -77 -18 -288 -15 -335 4 -23 10 -21 11 20 12 198 3 408 145 496 335
53 115 57 146 61 519 3 191 2 368 -2 392 -8 55 -45 100 -94 115 -32 10 -45 8
-83 -9 -64 -28 -78 -63 -78 -199 l0 -108 -117 -34 c-65 -18 -124 -36 -131 -39
-12 -4 -13 19 -10 134 3 126 6 144 30 197 47 99 159 193 262 218 58 13 153 9
215 -10z"/>
<path d="M2520 1475 l0 -125 155 0 155 0 0 -380 0 -380 160 0 160 0 0 380 0
380 160 0 160 0 0 125 0 125 -475 0 -475 0 0 -125z"/>
<path d="M3750 1095 l0 -505 160 0 160 0 0 505 0 505 -160 0 -160 0 0 -505z"/>
<path d="M4430 1095 l0 -505 130 0 130 0 1 358 1 357 91 -357 91 -358 121 0
121 0 90 353 89 352 3 -352 2 -353 135 0 135 0 0 505 0 505 -212 0 -213 0 -75
-296 -74 -296 -74 296 -74 296 -209 0 -209 0 0 -505z"/>
<path d="M5890 1095 l0 -505 160 0 160 0 0 184 0 184 148 4 c118 4 158 9 202
26 76 30 124 72 157 140 25 51 28 67 28 162 0 95 -3 111 -28 162 -18 37 -43
68 -70 88 -76 56 -109 60 -449 60 l-308 0 0 -505z m473 284 c26 -7 44 -21 57
-42 56 -91 -17 -166 -162 -167 l-48 0 0 110 0 110 58 0 c31 0 74 -5 95 -11z"/>
</g>
</svg>
